<svg width="26" height="24" viewBox="0 0 26 24" fill="none" xmlns="http://www.w3.org/2000/svg">
<path d="M12.1168 0.662835C12.4928 -0.0450788 13.5072 -0.045078 13.8832 0.662835L17.0665 6.65645C17.211 6.9286 17.473 7.11891 17.7765 7.17228L24.4604 8.34767C25.2499 8.48649 25.5633 9.4512 25.0063 10.0275L20.2897 14.9072C20.0755 15.1288 19.9755 15.4367 20.0185 15.7418L20.9661 22.4619C21.078 23.2556 20.2574 23.8518 19.5371 23.5001L13.4388 20.5223C13.1619 20.3871 12.8381 20.3871 12.5612 20.5223L6.46289 23.5001C5.74261 23.8518 4.92198 23.2556 5.0339 22.4619L5.9815 15.7418C6.02452 15.4367 5.92447 15.1288 5.71031 14.9072L0.993745 10.0275C0.436666 9.4512 0.750119 8.48649 1.53957 8.34767L8.22354 7.17228C8.52703 7.11891 8.78897 6.9286 8.93351 6.65645L12.1168 0.662835Z" fill="#23C2A8"/>
</svg>
